<svg width="45" height="45" viewBox="0 0 45 45" fill="none" xmlns="http://www.w3.org/2000/svg">
<path d="M0 8C0 3.58172 3.58172 0 8 0H37C41.4183 0 45 3.58172 45 8V37C45 41.4183 41.4183 45 37 45H8C3.58172 45 0 41.4183 0 37V8Z" fill="#4353FF"/>
<path d="M31.0019 17.7922C31.0019 17.7922 28.4859 25.6942 28.2809 26.3462C28.2059 25.6762 26.3609 11.4922 26.3609 11.4922C22.0739 11.4922 19.7809 14.5492 18.5709 17.7732C18.5709 17.7732 15.5139 25.6942 15.2529 26.3652C15.2339 25.7502 14.7869 17.8662 14.7869 17.8662C14.5269 13.9162 10.9099 11.5112 7.98389 11.5112L11.5249 33.0002C16.0169 32.9812 18.4399 29.9432 19.7069 26.7202C19.7069 26.7202 22.4099 19.7302 22.5219 19.4132C22.5399 19.7122 24.4599 33.0002 24.4599 33.0002C28.9699 33.0002 31.3929 30.1482 32.6979 27.0362L39.0159 11.5112C34.5619 11.5112 32.2129 14.5502 31.0019 17.7922Z" fill="white"/>
</svg>
