<svg width="45" height="45" viewBox="0 0 45 45" fill="none" xmlns="http://www.w3.org/2000/svg">
<path d="M0 8C0 3.58172 3.58172 0 8 0H37C41.4183 0 45 3.58172 45 8V37C45 41.4183 41.4183 45 37 45H8C3.58172 45 0 41.4183 0 37V8Z" fill="#1D1E21"/>
<mask id="mask0_723_231" style="mask-type:luminance" maskUnits="userSpaceOnUse" x="13" y="8" width="19" height="29">
<path d="M13 8.5H31.667V36.5H13V8.5Z" fill="white"/>
</mask>
<g mask="url(#mask0_723_231)">
<path d="M22.334 22.5C22.325 21.8814 22.439 21.2672 22.6694 20.6931C22.8999 20.119 23.2422 19.5964 23.6764 19.1558C24.1106 18.7152 24.6281 18.3653 25.1988 18.1265C25.7694 17.8876 26.3819 17.7646 27.0005 17.7646C27.6191 17.7646 28.2316 17.8876 28.8023 18.1265C29.3729 18.3653 29.8904 18.7152 30.3246 19.1558C30.7589 19.5964 31.1012 20.119 31.3316 20.6931C31.5621 21.2672 31.6761 21.8814 31.667 22.5C31.667 23.7377 31.1753 24.9248 30.3001 25.8C29.4248 26.6753 28.2378 27.167 27 27.167C25.7622 27.167 24.5752 26.6753 23.6999 25.8C22.8247 24.9248 22.334 23.7377 22.334 22.5Z" fill="#1ABCFE"/>
<path d="M13 31.833C13.0003 30.5954 13.4921 29.4086 14.3673 28.5336C15.2425 27.6586 16.4294 27.167 17.667 27.167H22.333V31.833C22.3421 32.4516 22.2281 33.0657 21.9976 33.6398C21.7672 34.2139 21.4249 34.7365 20.9906 35.1771C20.5564 35.6178 20.0389 35.9677 19.4683 36.2065C18.8976 36.4453 18.2851 36.5683 17.6665 36.5683C17.0479 36.5683 16.4354 36.4453 15.8648 36.2065C15.2941 35.9677 14.7766 35.6178 14.3424 35.1771C13.9082 34.7365 13.5659 34.2139 13.3354 33.6398C13.105 33.0657 12.991 32.4516 13 31.833Z" fill="#0ACF83"/>
<path d="M22.334 8.50001V17.833H27C27.6185 17.8421 28.2327 17.7281 28.8068 17.4976C29.3809 17.2672 29.9035 16.9249 30.3441 16.4906C30.7847 16.0564 31.1347 15.5389 31.3735 14.9683C31.6123 14.3976 31.7353 13.7851 31.7353 13.1665C31.7353 12.5479 31.6123 11.9354 31.3735 11.3648C31.1347 10.7941 30.7847 10.2766 30.3441 9.84238C29.9035 9.40816 29.3809 9.06587 28.8068 8.83542C28.2327 8.60497 27.6185 8.49096 27 8.50001H22.334Z" fill="#FF7262"/>
<path d="M13 13.167C13.0003 14.4046 13.4921 15.5914 14.3673 16.4664C15.2425 17.3414 16.4294 17.833 17.667 17.833H22.333V8.5H17.667C16.4292 8.5 15.2422 8.9917 14.3669 9.86693C13.4917 10.7422 13 11.9292 13 13.167Z" fill="#F24E1E"/>
<path d="M13 22.5C13 23.7378 13.4917 24.9248 14.3669 25.8001C15.2422 26.6753 16.4292 27.167 17.667 27.167H22.333V17.833H17.667C16.4292 17.833 15.2422 18.3247 14.3669 19.1999C13.4917 20.0752 13 21.2622 13 22.5Z" fill="#A259FF"/>
</g>
</svg>
