<svg width="32" height="32" viewBox="0 0 32 32" fill="none" xmlns="http://www.w3.org/2000/svg">
<path d="M16.041 15.9914C16.041 13.0542 18.4353 10.6609 21.4007 10.6609C24.3541 10.6609 26.7605 13.0421 26.7605 15.9914C26.7605 18.9286 24.3662 21.3219 21.4007 21.3219C18.4474 21.3219 16.041 18.9286 16.041 15.9914Z" fill="#1ABCFE"/>
<path d="M5.3335 26.6403C5.3335 23.7031 7.72775 21.3098 10.6932 21.3098H16.053V26.6403C16.053 29.5775 13.6587 31.9708 10.6932 31.9708C7.72775 31.9708 5.3335 29.5896 5.3335 26.6403Z" fill="#0ACF83"/>
<path d="M16.041 0.0120873V10.661H21.4007C24.3541 10.661 26.7605 8.27978 26.7605 5.33049C26.7605 2.39328 24.3662 0 21.4007 0H16.041V0.0120873Z" fill="#FF7262"/>
<path d="M5.3335 5.34245C5.3335 8.27965 7.72775 10.6729 10.6932 10.6729H16.053V0.0119629H10.6932C7.72775 0.0119629 5.3335 2.39315 5.3335 5.34245Z" fill="#F24E1E"/>
<path d="M5.3335 15.9914C5.3335 18.9286 7.72775 21.3219 10.6932 21.3219H16.053V10.6609H10.6932C7.72775 10.6609 5.3335 13.0542 5.3335 15.9914Z" fill="#A259FF"/>
</svg>
