<svg width="167" height="44" viewBox="0 0 167 44" fill="none" xmlns="http://www.w3.org/2000/svg">
<path d="M53.7813 17.3792C53.7813 14.3939 50.876 11.2198 45.849 11.2198C40.1987 11.2198 33.9993 15.3604 33.05 23.6243C32.1006 31.8882 37.2763 35.6742 42.5092 35.6742C47.742 35.6742 50.4814 33.6382 53.2837 30.916C52.5953 29.9938 51.5964 29.352 50.4715 29.1092C49.3467 28.8663 48.1719 29.0389 47.1644 29.5949C46.1764 30.1445 45.0575 30.4153 43.9275 30.3784C41.9087 30.3784 39.8498 29.4748 39.8498 25.706C52.7919 24.4249 53.7813 20.3645 53.7813 17.3792ZM47.3703 17.8767C47.2902 18.8032 46.9185 20.3873 40.3645 21.2738C41.7485 16.3669 44.3678 16.0009 45.5974 16.0009C45.8416 15.9917 46.085 16.0347 46.3112 16.1271C46.5374 16.2196 46.7413 16.3593 46.9091 16.5369C47.077 16.7145 47.205 16.9259 47.2845 17.157C47.364 17.388 47.3933 17.6334 47.3703 17.8767ZM25.4495 18.6774C25.4495 18.6774 22.6529 27.416 22.4413 28.1366C22.3555 27.3931 20.3195 11.7116 20.3195 11.7116C15.5785 11.7116 13.045 15.0916 11.7067 18.6545C11.7067 18.6545 8.32683 27.416 8.03516 28.1537C8.03516 27.4732 7.52046 18.7574 7.52046 18.7574C7.23451 14.3938 3.23694 11.7345 0 11.7345L3.9175 35.4797C8.88157 35.4797 11.5581 32.0998 12.9592 28.5369C12.9592 28.5369 15.9502 20.8105 16.0703 20.456C16.0703 20.7877 18.2149 35.4797 18.2149 35.4797C23.2019 35.4797 25.8784 32.3286 27.3253 28.8857L34.3081 11.7288C29.3841 11.7345 26.7877 15.0916 25.4495 18.6774ZM72.0763 11.1798C69.0052 11.1798 66.6547 12.844 64.6759 15.2974L66.4488 1C62.3712 1 59.0542 4.54005 58.4422 9.81867L55.354 35.3024C57.7045 35.3024 60.1922 34.6276 61.5362 32.8947C62.1873 33.7746 63.0393 34.4859 64.0212 34.9694C65.0032 35.4529 66.0865 35.6946 67.1808 35.6742C74.0436 35.6742 78.7789 27.6676 78.7789 20.1815C78.6989 13.3416 75.3933 11.1798 72.0763 11.1798ZM71.4358 23.4356C70.6923 27.6218 68.4047 30.4642 66.1171 30.4642C63.8295 30.4642 62.8859 29.4519 62.8859 29.4519C63.3148 25.7861 63.5836 23.5385 64.4071 21.6055C65.2307 19.6725 67.1923 16.5785 69.2282 16.5785C71.2642 16.5785 72.1563 19.2321 71.4358 23.4356ZM95.9359 11.7345H91.1319V11.4886C91.4636 8.35461 92.2014 6.70754 94.6548 6.43875C96.3247 6.2729 97.0682 5.40933 97.2512 4.45998C97.3942 3.71652 97.8517 1.14297 97.8517 1.14297C88.2038 1.08007 85.1785 5.24348 84.395 11.5915V11.7345H84.292C82.7307 11.7345 80.9979 13.5074 80.7062 15.7378L80.6033 16.5671H83.8459L81.1523 38.8711L80.323 42.8744H80.6547C85.167 42.7085 88.0494 39.1456 88.6613 33.9756L90.7659 16.6071H92.27C93.7512 16.6071 95.4841 15.1202 95.7929 12.6496L95.9359 11.7345ZM120.911 11.3228C115.363 11.3228 110.13 15.4004 108.523 21.8114C106.916 28.2223 109.347 35.8 117.508 35.8C125.669 35.8 130.347 27.9078 130.347 21.3367C130.347 14.7656 125.915 11.3228 120.911 11.3228ZM123.152 23.2297C122.867 26.1349 121.585 30.5442 118.085 30.5442C114.585 30.5442 115.054 25.3972 115.409 22.9437C115.775 20.3244 117.239 16.5957 120.39 16.5957C123.215 16.6071 123.484 19.9527 123.152 23.2297ZM157.729 18.6545C157.729 18.6545 154.944 27.3931 154.721 28.1137C154.635 27.3702 152.599 11.6888 152.599 11.6888C147.858 11.6888 145.325 15.0687 143.987 18.6316C143.987 18.6316 140.607 27.3931 140.315 28.1308C140.315 27.4503 139.8 18.7346 139.8 18.7346C139.514 14.371 135.517 11.7116 132.28 11.7116L136.175 35.4797C141.139 35.4797 143.821 32.0998 145.222 28.5369C145.222 28.5369 148.207 20.8105 148.31 20.456C148.31 20.7877 150.455 35.4797 150.455 35.4797C155.442 35.4797 158.118 32.3286 159.559 28.8857L166.548 11.7288C161.624 11.7345 159.045 15.0916 157.729 18.6774V18.6545ZM100.471 1.16585L96.4277 33.764L95.6042 37.7673H95.9359C100.282 37.7044 103.371 33.8956 103.942 29.0916L106.276 10.4077C106.979 4.68874 103.582 1.16585 100.471 1.16585Z" fill="white"/>
</svg>
