<svg width="28" height="44" viewBox="0 0 28 44" fill="none" xmlns="http://www.w3.org/2000/svg">
<path fill-rule="evenodd" clip-rule="evenodd" d="M10.4305 10.4782C4.60324 10.4782 0.545898 15.377 0.545898 21.189C0.545898 27.001 4.60324 31.8997 10.4305 31.8997C13.102 31.8997 15.2892 30.8702 16.8921 29.2096V32.2152C16.8921 35.9847 13.9201 39.1232 10.0297 39.1232C8.62719 39.1232 7.24135 38.5918 6.13936 37.828L3.93536 41.6141C5.68854 42.7433 7.77565 43.3909 10.013 43.3909C16.2243 43.3909 21.25 38.3926 21.25 32.2152V11.1425H16.8921V13.1684C15.2892 11.5078 13.102 10.4782 10.4305 10.4782ZM4.93718 21.189C4.93718 17.5855 7.70886 14.7459 10.9147 14.7459C14.1205 14.7459 16.8921 17.5855 16.8921 21.189C16.8921 24.7924 14.1205 27.632 10.9147 27.632C7.70886 27.632 4.93718 24.7924 4.93718 21.189Z" fill="white"/>
</svg>
