<svg width="36" height="44" viewBox="0 0 36 44" fill="none" xmlns="http://www.w3.org/2000/svg">
<g clip-path="url(#clip0_704_270)">
<path d="M9.06201 14.7459C6.47399 14.7459 4.37019 16.9379 4.37019 19.5118V33.8758H-0.00439453V11.1425H4.37019V13.2182C5.65585 11.5742 7.5426 10.4782 10.0137 10.4782C13.086 10.4782 15.4402 11.9894 16.8094 14.3142C18.3288 12.0724 20.7999 10.4782 23.7887 10.4782C28.781 10.4782 31.8867 14.4802 31.9033 19.4288V33.8758H27.5288V19.4952C27.5288 16.9213 25.425 14.7293 22.8369 14.7293C20.2489 14.7293 18.1451 16.9213 18.1451 19.4952V33.8758H13.7705V19.4952C13.7538 16.9213 11.65 14.7459 9.06201 14.7459Z" fill="white"/>
</g>
<defs>
<clipPath id="clip0_704_270">
<rect width="36" height="44" fill="white"/>
</clipPath>
</defs>
</svg>
