<svg width="32" height="32" viewBox="0 0 32 32" fill="none" xmlns="http://www.w3.org/2000/svg">
<path d="M23.7373 11.5144C23.7373 11.5144 21.1289 19.4843 20.9315 20.1415C20.8515 19.4635 18.9525 5.16138 18.9525 5.16138C14.5304 5.16138 12.1674 8.24399 10.9192 11.4935C10.9192 11.4935 7.76663 19.4843 7.49458 20.1572C7.49458 19.5365 7.0145 11.5874 7.0145 11.5874C6.74779 7.60764 3.01917 5.18224 0 5.18224L3.65394 26.8388C8.28405 26.8388 10.7805 23.7562 12.0873 20.5067C12.0873 20.5067 14.8771 13.4599 14.9892 13.1365C14.9892 13.4391 16.9895 26.8388 16.9895 26.8388C21.6409 26.8388 24.1374 23.9648 25.4869 20.8248L32 5.17702C27.4072 5.18224 24.9855 8.24399 23.7373 11.5144Z" fill="#4353FF"/>
</svg>
