<svg width="122" height="44" viewBox="0 0 122 44" fill="none" xmlns="http://www.w3.org/2000/svg">
<path d="M0 0V33.8758L4.37458 33.8924V17.7682H14.9437V13.5005H4.37458V4.26769H18.1328V0H0Z" fill="#F04F2C"/>
<path d="M26.0305 6.8748C27.6167 6.8748 28.8856 5.59615 28.8856 4.03521C28.8856 2.47426 27.6 1.19562 26.0305 1.19562C24.4443 1.19562 23.1753 2.47426 23.1753 4.03521C23.1753 5.59615 24.461 6.8748 26.0305 6.8748ZM23.8098 11.1425V33.8758H28.1844V11.1425H23.8098Z" fill="#F96E65"/>
<path fill-rule="evenodd" clip-rule="evenodd" d="M44.4305 10.4782C38.6032 10.4782 34.5459 15.377 34.5459 21.189C34.5459 27.001 38.6032 31.8997 44.4305 31.8997C47.102 31.8997 49.2892 30.8702 50.8921 29.2096V32.2152C50.8921 35.9847 47.9201 39.1232 44.0297 39.1232C42.6272 39.1232 41.2413 38.5918 40.1394 37.828L37.9354 41.6141C39.6885 42.7433 41.7756 43.3909 44.013 43.3909C50.2243 43.3909 55.25 38.3926 55.25 32.2152V11.1425H50.8921V13.1684C49.2892 11.5078 47.102 10.4782 44.4305 10.4782ZM38.9372 21.189C38.9372 17.5855 41.7089 14.7459 44.9147 14.7459C48.1205 14.7459 50.8921 17.5855 50.8921 21.189C50.8921 24.7924 48.1205 27.632 44.9147 27.632C41.7089 27.632 38.9372 24.7924 38.9372 21.189Z" fill="#A15AF8"/>
<g clip-path="url(#clip0_742_21)">
<path d="M71.062 14.7459C68.474 14.7459 66.3702 16.9379 66.3702 19.5118V33.8758H61.9956V11.1425H66.3702V13.2182C67.6559 11.5742 69.5426 10.4782 72.0137 10.4782C75.086 10.4782 77.4402 11.9894 78.8094 14.3142C80.3288 12.0724 82.7999 10.4782 85.7887 10.4782C90.781 10.4782 93.8867 14.4802 93.9033 19.4288V33.8758H89.5288V19.4952C89.5288 16.9213 87.425 14.7293 84.8369 14.7293C82.2489 14.7293 80.1451 16.9213 80.1451 19.4952V33.8758H75.7705V19.4952C75.7538 16.9213 73.65 14.7459 71.062 14.7459Z" fill="#24BCFA"/>
</g>
<path fill-rule="evenodd" clip-rule="evenodd" d="M117.245 13.7164C115.292 11.7071 112.62 10.4782 109.531 10.4782C103.02 10.4782 98.3779 15.9748 98.3779 22.5174C98.3779 29.0601 103.003 34.5566 109.531 34.5566C112.62 34.5566 115.292 33.3112 117.245 31.3185V33.8758H121.62V11.1425H117.245V13.7164ZM102.769 22.5174C102.769 18.1833 106.109 14.7459 110.016 14.7459C113.906 14.7459 117.262 18.1667 117.262 22.5174C117.262 26.8516 113.923 30.289 110.016 30.289C106.109 30.2723 102.769 26.8516 102.769 22.5174Z" fill="#20CE88"/>
<defs>
<clipPath id="clip0_742_21">
<rect width="36" height="44" fill="white" transform="translate(62)"/>
</clipPath>
</defs>
</svg>
