<svg width="16" height="16" viewBox="0 0 16 16" fill="none" xmlns="http://www.w3.org/2000/svg">
<path d="M14.3999 14.3999V9.71195C14.3999 7.40795 13.9039 5.64795 11.2159 5.64795C9.91993 5.64795 9.05593 6.35195 8.70393 7.02395H8.67193V5.85595H6.12793V14.3999H8.78393V10.1599C8.78393 9.03995 8.99193 7.96795 10.3679 7.96795C11.7279 7.96795 11.7439 9.23195 11.7439 10.2239V14.3839H14.3999V14.3999Z" fill="white"/>
<path d="M1.80811 5.85596H4.46411V14.4H1.80811V5.85596Z" fill="white"/>
<path d="M3.1361 1.6001C2.2881 1.6001 1.6001 2.2881 1.6001 3.1361C1.6001 3.9841 2.2881 4.6881 3.1361 4.6881C3.9841 4.6881 4.6721 3.9841 4.6721 3.1361C4.6721 2.2881 3.9841 1.6001 3.1361 1.6001Z" fill="white"/>
</svg>
