<svg width="16" height="16" viewBox="0 0 16 16" fill="none" xmlns="http://www.w3.org/2000/svg">
<path fill-rule="evenodd" clip-rule="evenodd" d="M16 3.06654C15.4 3.3332 14.8 3.5332 14.1333 3.59987C14.8 3.19987 15.3333 2.5332 15.6 1.79987C14.9333 2.19987 14.2667 2.46654 13.5333 2.59987C12.9333 1.9332 12.0667 1.5332 11.1333 1.5332C9.33333 1.5332 7.86667 2.99987 7.86667 4.79987C7.86667 5.06654 7.86667 5.3332 7.93333 5.5332C5.13333 5.39987 2.73333 4.06654 1.13333 2.06654C0.8 2.59987 0.666667 3.1332 0.666667 3.7332C0.666667 4.86654 1.26667 5.86654 2.13333 6.46654C1.6 6.46654 1.06667 6.3332 0.666667 6.06654C0.666667 6.06654 0.666667 6.06654 0.666667 6.1332C0.666667 7.7332 1.8 9.06654 3.26667 9.3332C3 9.39987 2.73333 9.46654 2.4 9.46654C2.2 9.46654 2 9.46654 1.8 9.39987C2.2 10.7332 3.4 11.6665 4.86667 11.6665C3.73333 12.5332 2.33333 13.0665 0.8 13.0665C0.533333 13.0665 0.266667 13.0665 0 12.9999C1.46667 13.9332 3.2 14.4665 5 14.4665C11.0667 14.4665 14.3333 9.46654 14.3333 5.1332C14.3333 4.99987 14.3333 4.86654 14.3333 4.7332C15 4.26654 15.5333 3.66654 16 3.06654Z" fill="white"/>
</svg>
